<?xml version="1.0" encoding="UTF-8" standalone="no"?>
<!-- Created with Inkscape (http://www.inkscape.org/) -->

<svg
   width="200mm"
   height="130mm"
   viewBox="0 0 200 130"
   version="1.1"
   id="svg1"
   sodipodi:docname="fig-11-sphere-interreflections.svg"
   inkscape:version="1.3 (0e150ed, 2023-07-21)"
   xmlns:inkscape="http://www.inkscape.org/namespaces/inkscape"
   xmlns:sodipodi="http://sodipodi.sourceforge.net/DTD/sodipodi-0.dtd"
   xmlns="http://www.w3.org/2000/svg"
   xmlns:svg="http://www.w3.org/2000/svg">
  <sodipodi:namedview
     id="namedview1"
     pagecolor="#ffffff"
     bordercolor="#000000"
     borderopacity="0.25"
     inkscape:showpageshadow="2"
     inkscape:pageopacity="0.0"
     inkscape:pagecheckerboard="0"
     inkscape:deskcolor="#d1d1d1"
     inkscape:document-units="mm"
     inkscape:zoom="0.45696802"
     inkscape:cx="382.95897"
     inkscape:cy="135.67689"
     inkscape:window-width="1312"
     inkscape:window-height="923"
     inkscape:window-x="218"
     inkscape:window-y="162"
     inkscape:window-maximized="0"
     inkscape:current-layer="layer1" />
  <defs
     id="defs1" />
  <g
     inkscape:label="Layer 1"
     inkscape:groupmode="layer"
     id="layer1">
    <path
       style="fill:#f0a505;fill-opacity:1;stroke:#eea405;stroke-width:2.086;stroke-linejoin:bevel;stroke-miterlimit:3.7;stroke-dasharray:none;stroke-opacity:1"
       id="path1"
       sodipodi:type="arc"
       sodipodi:cx="200"
       sodipodi:cy="142.13306"
       sodipodi:rx="586.83502"
       sodipodi:ry="38.983582"
       sodipodi:start="0.93349205"
       sodipodi:end="0.92436405"
       sodipodi:open="true"
       sodipodi:arc-type="chord"
       d="m 549.18506,173.46427 a 586.83502,38.983582 0 0 1 -820.02789,-8.06333 586.83502,38.983582 0 0 1 119.50885,-54.4929 586.83502,38.983582 0 0 1 820.57333,7.81463 586.83502,38.983582 0 0 1 -115.76376,54.52856 z" />
    <path
       style="fill:#057ef0;fill-opacity:1;stroke:#057ff0;stroke-width:2.37;stroke-linejoin:bevel;stroke-miterlimit:3.7;stroke-dasharray:none;stroke-opacity:1"
       id="path2"
       sodipodi:type="arc"
       sodipodi:cx="198.94165"
       sodipodi:cy="-67.757721"
       sodipodi:rx="168.79056"
       sodipodi:ry="168.79056"
       sodipodi:start="0.93349205"
       sodipodi:end="0.92436405"
       sodipodi:open="true"
       sodipodi:arc-type="chord"
       d="M 299.37727,67.899709 A 168.79056,168.79056 0 0 1 63.513768,32.98721 168.79056,168.79056 0 0 1 97.887936,-202.95535 168.79056,168.79056 0 0 1 333.90832,-169.11969 168.79056,168.79056 0 0 1 300.61135,66.977294 Z" />
    <path
       style="fill:none;stroke:#ff0049;stroke-width:1.3;stroke-linejoin:bevel;stroke-miterlimit:3.7;stroke-dasharray:none;stroke-dashoffset:0;stroke-opacity:1"
       d="M -0.74673865,11.289937 122.10726,101.93082 c 0,0 11.72325,-9.064574 14.43708,-11.237376 l 1.71973,11.528126 1.41569,-10.524641 -6.7177,10.405641 -11.13742,-17.772522 -105.681396,19.238972 -28.26697,-4.339712"
       id="path3"
       sodipodi:nodetypes="ccccccccc" />
  </g>
</svg>
